<svg xmlns="http://www.w3.org/2000/svg" width="190" height="120" viewBox="0 0 190 120"><g transform="translate(-233 -52)"><circle cx="7.5" cy="7.5" r="7.5" transform="translate(233 52)" fill="#f7f7f7"/><circle cx="7.5" cy="7.5" r="7.5" transform="translate(268 52)" fill="#f7f7f7"/><circle cx="7.5" cy="7.5" r="7.5" transform="translate(303 52)" fill="#f7f7f7"/><circle cx="7.5" cy="7.5" r="7.5" transform="translate(338 52)" fill="#f7f7f7"/><circle cx="7.5" cy="7.5" r="7.5" transform="translate(373 52)" fill="#f7f7f7"/><circle cx="7.5" cy="7.5" r="7.5" transform="translate(408 52)" fill="#f7f7f7"/><circle cx="7.5" cy="7.5" r="7.5" transform="translate(233 87)" fill="#f7f7f7"/><circle cx="7.5" cy="7.5" r="7.5" transform="translate(268 87)" fill="#f7f7f7"/><circle cx="7.5" cy="7.5" r="7.5" transform="translate(303 87)" fill="#f7f7f7"/><circle cx="7.5" cy="7.5" r="7.5" transform="translate(338 87)" fill="#f7f7f7"/><circle cx="7.5" cy="7.5" r="7.5" transform="translate(373 87)" fill="#f7f7f7"/><circle cx="7.5" cy="7.5" r="7.5" transform="translate(408 87)" fill="#f7f7f7"/><circle cx="7.5" cy="7.5" r="7.5" transform="translate(233 122)" fill="#f7f7f7"/><circle cx="7.5" cy="7.5" r="7.5" transform="translate(268 122)" fill="#f7f7f7"/><circle cx="7.5" cy="7.5" r="7.5" transform="translate(303 122)" fill="#f7f7f7"/><circle cx="7.5" cy="7.5" r="7.5" transform="translate(338 122)" fill="#f7f7f7"/><circle cx="7.5" cy="7.5" r="7.5" transform="translate(373 122)" fill="#f7f7f7"/><circle cx="7.5" cy="7.5" r="7.5" transform="translate(408 122)" fill="#f7f7f7"/><circle cx="7.5" cy="7.5" r="7.5" transform="translate(233 157)" fill="#f7f7f7"/><circle cx="7.5" cy="7.5" r="7.5" transform="translate(268 157)" fill="#f7f7f7"/><circle cx="7.5" cy="7.5" r="7.5" transform="translate(303 157)" fill="#f7f7f7"/><circle cx="7.5" cy="7.5" r="7.5" transform="translate(338 157)" fill="#f7f7f7"/><circle cx="7.5" cy="7.5" r="7.5" transform="translate(373 157)" fill="#f7f7f7"/><circle cx="7.5" cy="7.5" r="7.5" transform="translate(408 157)" fill="#f7f7f7"/></g></svg>