<svg xmlns="http://www.w3.org/2000/svg" xmlns:xlink="http://www.w3.org/1999/xlink" width="1146.745" height="1220.322" viewBox="0 0 1146.745 1220.322"><defs><filter id="a" x="10" y="691.678" width="572.346" height="528.644" filterUnits="userSpaceOnUse"><feOffset dx="5" dy="5" input="SourceAlpha"/><feGaussianBlur stdDeviation="7.5" result="b"/><feFlood flood-opacity="0.063"/><feComposite operator="in" in2="b"/><feComposite in="SourceGraphic"/></filter><filter id="c" x="0" y="681.678" width="572.346" height="528.644" filterUnits="userSpaceOnUse"><feOffset dx="-5" dy="-5" input="SourceAlpha"/><feGaussianBlur stdDeviation="7.5" result="d"/><feFlood flood-color="#fff" flood-opacity="0.608"/><feComposite operator="in" in2="d"/><feComposite in="SourceGraphic"/></filter><filter id="e" x="18.346" y="10" width="368" height="368" filterUnits="userSpaceOnUse"><feOffset dx="5" dy="5" input="SourceAlpha"/><feGaussianBlur stdDeviation="7.5" result="f"/><feFlood flood-opacity="0.059"/><feComposite operator="in" in2="f"/><feComposite in="SourceGraphic"/></filter><filter id="g" x="8.346" y="0" width="368" height="368" filterUnits="userSpaceOnUse"><feOffset dx="-5" dy="-5" input="SourceAlpha"/><feGaussianBlur stdDeviation="7.5" result="h"/><feFlood flood-color="#fff" flood-opacity="0.608"/><feComposite operator="in" in2="h"/><feComposite in="SourceGraphic"/></filter><filter id="i" x="675.946" y="360.601" width="470.799" height="470.799" filterUnits="userSpaceOnUse"><feOffset dx="5" dy="5" input="SourceAlpha"/><feGaussianBlur stdDeviation="7.5" result="j"/><feFlood flood-opacity="0.063"/><feComposite operator="in" in2="j"/><feComposite in="SourceGraphic"/></filter><filter id="k" x="665.946" y="350.601" width="470.799" height="470.799" filterUnits="userSpaceOnUse"><feOffset dx="-5" dy="-5" input="SourceAlpha"/><feGaussianBlur stdDeviation="7.5" result="l"/><feFlood flood-color="#fff" flood-opacity="0.608"/><feComposite operator="in" in2="l"/><feComposite in="SourceGraphic"/></filter></defs><g transform="translate(-856.154 135.5)"><g transform="translate(-406.244 33.941) rotate(14)"><g transform="matrix(0.97, -0.24, 0.24, 0.97, 1183.91, -469.81)" filter="url(#a)"><g transform="translate(121.12 709.18) rotate(14)" fill="none"><path d="M223.5,0,447,387H0Z" stroke="none"/><path d="M 223.4999847412109 59.98681640625 L 51.9691162109375 357 L 395.0308532714844 357 L 223.4999847412109 59.98681640625 M 223.4999847412109 0 L 447 387 L 0 387 L 223.4999847412109 0 Z" stroke="none" fill="#f0f0f0"/></g></g><g transform="matrix(0.97, -0.24, 0.24, 0.97, 1183.91, -469.81)" filter="url(#c)"><g transform="translate(121.12 709.18) rotate(14)" fill="none"><path d="M223.5,0,447,387H0Z" stroke="none"/><path d="M 223.4999847412109 59.98681640625 L 51.9691162109375 357 L 395.0308532714844 357 L 223.4999847412109 59.98681640625 M 223.4999847412109 0 L 447 387 L 0 387 L 223.4999847412109 0 Z" stroke="none" fill="#f0f0f0"/></g></g></g><g transform="translate(473.766 -655.234)"><g transform="matrix(1, 0, 0, 1, 382.39, 519.73)" filter="url(#e)"><g transform="translate(35.85 27.5)" fill="none" stroke="#f0f0f0" stroke-width="30"><circle cx="161.5" cy="161.5" r="161.5" stroke="none"/><circle cx="161.5" cy="161.5" r="146.5" fill="none"/></g></g><g transform="matrix(1, 0, 0, 1, 382.39, 519.73)" filter="url(#g)"><g transform="translate(35.85 27.5)" fill="none" stroke="#f0f0f0" stroke-width="30"><circle cx="161.5" cy="161.5" r="161.5" stroke="none"/><circle cx="161.5" cy="161.5" r="146.5" fill="none"/></g></g></g><g transform="translate(829.49 -68.69) rotate(17)"><g transform="matrix(0.96, -0.29, 0.29, 0.96, 5.97, -71.69)" filter="url(#i)"><g transform="translate(793.15 378.1) rotate(17)" fill="none" stroke="#f0f0f0" stroke-width="30"><rect width="341" height="341" stroke="none"/><rect x="15" y="15" width="311" height="311" fill="none"/></g></g><g transform="matrix(0.96, -0.29, 0.29, 0.96, 5.97, -71.69)" filter="url(#k)"><g transform="translate(793.15 378.1) rotate(17)" fill="none" stroke="#f0f0f0" stroke-width="30"><rect width="341" height="341" stroke="none"/><rect x="15" y="15" width="311" height="311" fill="none"/></g></g></g></g></svg>